; NON-PLATED HOLES START AT T1
; THROUGH (PLATED) HOLES START AT T100
M48
INCH
T1C0.086614
T100C0.041361
T101C0.125984
T102C0.047244
T103C0.035000
T104C0.031497
T105C0.088356
T106C0.038000
T107C0.041333
%
T1
X016998Y002074
X004498Y015574
X022498Y011074
X013498Y015574
X051498Y002074
X041998Y002074
T100
X027999Y001574
X027999Y011074
X053498Y021074
X037998Y001574
X037998Y011074
X047998Y011074
X023999Y027574
X058498Y001574
X058498Y011074
T101
X001498Y031873
X001498Y001574
X061500Y020074
X021148Y020074
X061500Y031873
X001498Y020074
X061500Y001574
X017208Y020074
T102
X032498Y034074
X037498Y034074
X013498Y004074
X011498Y004074
X042498Y028074
X011498Y002074
X013498Y002074
X042498Y034074
X032498Y029074
X037498Y029074
X032498Y030074
X037498Y030074
X047998Y004074
X045998Y004074
X019998Y006074
X018998Y006074
X004498Y012574
X006498Y012574
X042498Y029074
X032498Y033074
X047998Y002074
X045998Y002074
X042498Y030074
X032498Y025074
X037498Y033074
X006498Y010574
X004498Y010574
X037498Y025074
X011498Y012574
X013498Y012574
X019998Y007074
X042498Y033074
X032498Y028074
X011498Y010574
X013498Y010574
X042498Y025074
X018998Y007074
X037498Y028074
T103
X052499Y012574
X009998Y027074
X009498Y019074
X009498Y023074
X010498Y019074
X007498Y005574
X013998Y027074
X010498Y023074
X052499Y008574
X007498Y001574
T104
X003998Y026574
X003998Y027558
X051499Y007574
X051499Y006590
X005498Y004074
X005498Y003090
T105
X055557Y004527
X038940Y014027
X045057Y014027
X048940Y014027
X055557Y014027
X059440Y004527
X059440Y014027
X021057Y030527
X050557Y024027
X025057Y004527
X028940Y004527
X024940Y030527
X054440Y024027
X035057Y004527
X025057Y014027
X038940Y004527
X028940Y014027
X035057Y014027
T106
X010498Y025074
X037498Y016574
X039498Y016574
X041498Y016574
X043498Y016574
X045498Y016574
X040498Y016574
X042498Y016574
X044498Y016574
X046498Y016574
X048498Y016574
X047498Y016574
X049498Y016574
X051498Y016574
X053498Y016574
X055498Y016574
X050498Y016574
X052498Y016574
X054498Y016574
X056498Y016574
X058498Y016574
X057498Y016574
X059498Y016574
X020498Y016574
X021498Y016574
X023498Y016574
X025498Y016574
X022498Y016574
X024498Y016574
X026498Y016574
X028498Y016574
X027498Y016574
X029498Y016574
X007498Y025074
X008498Y025074
X009498Y025074
X058498Y017574
X031498Y016574
X033498Y016574
X035498Y016574
X057498Y017574
X030498Y016574
X032498Y016574
X034498Y016574
X036498Y016574
X038498Y016574
T107
X052498Y021074
X035998Y001574
X025998Y011074
X036998Y001574
X026998Y011074
X035998Y011074
X036998Y011074
X021998Y027574
X045998Y011074
X046998Y011074
X056498Y001574
X057498Y001574
X022998Y027574
X056498Y011074
X057498Y011074
X025998Y001574
X026998Y001574
X051498Y021074
T00
M30
