G04 MADE WITH FRITZING*
G04 WWW.FRITZING.ORG*
G04 DOUBLE SIDED*
G04 HOLES PLATED*
G04 CONTOUR ON CENTER OF CONTOUR VECTOR*
%ASAXBY*%
%FSLAX23Y23*%
%MOIN*%
%OFA0B0*%
%SFA1.0B1.0*%
%ADD10C,0.204725*%
%ADD11C,0.188976*%
%ADD12C,0.075000*%
%ADD13C,0.074667*%
%ADD14C,0.074695*%
%ADD15C,0.124033*%
%ADD16C,0.062992*%
%ADD17C,0.087244*%
%ADD18C,0.078000*%
%ADD19R,0.062992X0.062992*%
%ADD20R,0.078000X0.078000*%
%ADD21C,0.024000*%
%ADD22C,0.048000*%
%LNCOPPER1*%
G90*
G70*
G54D10*
X1721Y2007D03*
G54D11*
X150Y3187D03*
G54D10*
X150Y157D03*
X150Y2007D03*
X2115Y2007D03*
G54D11*
X6150Y3187D03*
G54D10*
X6150Y157D03*
X6150Y2007D03*
G54D12*
X1000Y2707D03*
X1400Y2707D03*
X750Y157D03*
X750Y557D03*
X5250Y857D03*
X5250Y1257D03*
X1050Y2307D03*
X1050Y1907D03*
X950Y2307D03*
X950Y1907D03*
G54D13*
X5150Y2107D03*
X5250Y2107D03*
G54D14*
X5350Y2107D03*
G54D15*
X5056Y2403D03*
X5444Y2403D03*
G54D13*
X2600Y1107D03*
X2700Y1107D03*
G54D14*
X2800Y1107D03*
G54D15*
X2506Y1403D03*
X2894Y1403D03*
G54D13*
X2600Y157D03*
X2700Y157D03*
G54D14*
X2800Y157D03*
G54D15*
X2506Y453D03*
X2894Y453D03*
G54D13*
X3600Y1107D03*
X3700Y1107D03*
G54D14*
X3800Y1107D03*
G54D15*
X3506Y1403D03*
X3894Y1403D03*
G54D13*
X3600Y157D03*
X3700Y157D03*
G54D14*
X3800Y157D03*
G54D15*
X3506Y453D03*
X3894Y453D03*
G54D13*
X4600Y1107D03*
X4700Y1107D03*
G54D14*
X4800Y1107D03*
G54D15*
X4506Y1403D03*
X4894Y1403D03*
G54D13*
X5650Y1107D03*
X5750Y1107D03*
G54D14*
X5850Y1107D03*
G54D15*
X5556Y1403D03*
X5944Y1403D03*
G54D13*
X5650Y157D03*
X5750Y157D03*
G54D14*
X5850Y157D03*
G54D15*
X5556Y453D03*
X5944Y453D03*
G54D13*
X2200Y2757D03*
X2300Y2757D03*
G54D14*
X2400Y2757D03*
G54D15*
X2106Y3053D03*
X2494Y3053D03*
G54D16*
X550Y309D03*
X550Y407D03*
X400Y2756D03*
X400Y2657D03*
X5150Y659D03*
X5150Y757D03*
G54D17*
X4250Y2907D03*
X4250Y2807D03*
X4250Y3007D03*
X4250Y3407D03*
X4250Y3307D03*
X4250Y2507D03*
X3750Y2507D03*
X3750Y2907D03*
X3750Y2807D03*
X3750Y3007D03*
X3750Y3407D03*
X3750Y3307D03*
X3250Y3007D03*
X4600Y407D03*
X4800Y407D03*
X4600Y207D03*
X4800Y207D03*
X1150Y407D03*
X1350Y407D03*
X1350Y207D03*
X1150Y207D03*
X650Y1257D03*
X450Y1057D03*
X450Y1257D03*
X650Y1057D03*
X1350Y1057D03*
X1150Y1057D03*
X1350Y1257D03*
X1150Y1257D03*
X3250Y3407D03*
X3250Y3307D03*
X3250Y2507D03*
X1900Y707D03*
X1900Y607D03*
X2000Y707D03*
X2000Y607D03*
X3250Y2907D03*
X3250Y2807D03*
G54D18*
X5950Y1657D03*
X5850Y1657D03*
X5750Y1657D03*
X5650Y1657D03*
X5550Y1657D03*
X5450Y1657D03*
X5350Y1657D03*
X5250Y1657D03*
X5150Y1657D03*
X5050Y1657D03*
X4950Y1657D03*
X4850Y1657D03*
X4750Y1657D03*
X4650Y1657D03*
X4550Y1657D03*
X4450Y1657D03*
X4350Y1657D03*
X4250Y1657D03*
X4150Y1657D03*
X4050Y1657D03*
X3950Y1657D03*
X3850Y1657D03*
X3750Y1657D03*
X3650Y1657D03*
X3550Y1657D03*
X3450Y1657D03*
X3350Y1657D03*
X3250Y1657D03*
X3150Y1657D03*
X3050Y1657D03*
X2950Y1657D03*
X2850Y1657D03*
X2750Y1657D03*
X2650Y1657D03*
X2550Y1657D03*
X2450Y1657D03*
X2350Y1657D03*
X2250Y1657D03*
X2150Y1657D03*
X2050Y1657D03*
X5850Y1757D03*
X5750Y1757D03*
X1050Y2507D03*
X950Y2507D03*
X850Y2507D03*
X750Y2507D03*
G54D19*
X550Y309D03*
X400Y2756D03*
X5150Y659D03*
G54D20*
X5950Y1657D03*
X5850Y1757D03*
X1050Y2507D03*
G54D21*
X2348Y1006D02*
X2350Y1627D01*
D02*
X2026Y730D02*
X2348Y1006D01*
D02*
X2401Y1557D02*
X2437Y1630D01*
D02*
X2401Y956D02*
X2401Y1557D01*
D02*
X2026Y630D02*
X2401Y956D01*
D02*
X2598Y1560D02*
X2600Y1139D01*
D02*
X2563Y1630D02*
X2598Y1560D01*
G54D22*
D02*
X5248Y1457D02*
X5250Y1616D01*
D02*
X5618Y1136D02*
X5248Y1457D01*
G54D21*
D02*
X3649Y1207D02*
X3650Y1627D01*
D02*
X3685Y1136D02*
X3649Y1207D01*
D02*
X3501Y1558D02*
X3537Y1630D01*
D02*
X3201Y1559D02*
X3501Y1558D01*
D02*
X3199Y207D02*
X3201Y1559D01*
D02*
X3299Y59D02*
X3199Y207D01*
D02*
X5701Y57D02*
X3299Y59D01*
D02*
X5736Y129D02*
X5701Y57D01*
D02*
X3101Y1559D02*
X3137Y1630D01*
D02*
X3101Y508D02*
X3101Y1559D01*
D02*
X2949Y306D02*
X3101Y508D01*
D02*
X2750Y306D02*
X2949Y306D01*
D02*
X2710Y188D02*
X2750Y306D01*
D02*
X4698Y1808D02*
X4659Y1686D01*
D02*
X5250Y1808D02*
X4698Y1808D01*
D02*
X5250Y2076D02*
X5250Y1808D01*
D02*
X5248Y1057D02*
X5250Y1229D01*
D02*
X5050Y1056D02*
X5248Y1057D01*
D02*
X4500Y1609D02*
X5050Y1056D01*
D02*
X4528Y1636D02*
X4500Y1609D01*
D02*
X4449Y1608D02*
X4450Y1627D01*
D02*
X4698Y1356D02*
X4449Y1608D01*
D02*
X5050Y1007D02*
X4698Y1356D01*
D02*
X5701Y1007D02*
X5050Y1007D01*
D02*
X5736Y1079D02*
X5701Y1007D01*
D02*
X4350Y1608D02*
X4350Y1627D01*
D02*
X4349Y1396D02*
X4350Y1608D01*
D02*
X4584Y1178D02*
X4349Y1396D01*
D02*
X4701Y1178D02*
X4584Y1178D01*
D02*
X4700Y1139D02*
X4701Y1178D01*
D02*
X4701Y1007D02*
X3951Y1007D01*
D02*
X3951Y1158D02*
X3798Y1356D01*
D02*
X3951Y1007D02*
X3951Y1158D01*
D02*
X3798Y1356D02*
X3798Y1559D01*
D02*
X3798Y1559D02*
X3836Y1631D01*
D02*
X4802Y906D02*
X4701Y1007D01*
D02*
X4800Y442D02*
X4802Y906D01*
D02*
X3400Y308D02*
X3249Y506D01*
D02*
X3649Y308D02*
X3400Y308D01*
D02*
X3249Y506D02*
X3249Y956D01*
D02*
X3299Y1007D02*
X3901Y1007D01*
D02*
X3249Y956D02*
X3299Y1007D01*
D02*
X3901Y1158D02*
X3749Y1356D01*
D02*
X3901Y1109D02*
X3901Y1158D01*
D02*
X3901Y1007D02*
X3901Y1109D01*
D02*
X3749Y1356D02*
X3750Y1627D01*
D02*
X3690Y188D02*
X3649Y308D01*
D02*
X5648Y2358D02*
X5651Y1758D01*
D02*
X5450Y2509D02*
X5648Y2358D01*
D02*
X5651Y1758D02*
X5729Y1679D01*
D02*
X4399Y2508D02*
X5450Y2509D01*
D02*
X4285Y2508D02*
X4399Y2508D01*
D02*
X800Y57D02*
X763Y132D01*
D02*
X3051Y59D02*
X800Y57D01*
D02*
X3152Y207D02*
X3051Y59D01*
D02*
X3151Y1559D02*
X3152Y207D01*
D02*
X3229Y1636D02*
X3151Y1559D01*
D02*
X3650Y2457D02*
X3898Y2257D01*
D02*
X3850Y2457D02*
X3850Y2857D01*
D02*
X5499Y1759D02*
X5463Y1685D01*
D02*
X5500Y2156D02*
X5499Y1759D01*
D02*
X5400Y2257D02*
X5500Y2156D01*
D02*
X3898Y2257D02*
X5400Y2257D01*
D02*
X3650Y3357D02*
X3650Y2457D01*
D02*
X3719Y3392D02*
X3650Y3357D01*
D02*
X3850Y2857D02*
X3781Y2892D01*
D02*
X4050Y2306D02*
X3850Y2457D01*
D02*
X5450Y2307D02*
X4050Y2306D01*
D02*
X5601Y2156D02*
X5450Y2307D01*
D02*
X5602Y1757D02*
X5601Y2156D01*
D02*
X5637Y1685D02*
X5602Y1757D01*
D02*
X5950Y1757D02*
X6054Y1752D01*
D02*
X6054Y1752D02*
X6052Y1558D01*
D02*
X6052Y1558D02*
X5900Y1558D01*
D02*
X5900Y1558D02*
X5863Y1631D01*
D02*
X5951Y2358D02*
X5950Y1757D01*
D02*
X5699Y2556D02*
X5951Y2358D01*
D02*
X4399Y2558D02*
X5699Y2556D01*
D02*
X4398Y2906D02*
X4399Y2558D01*
D02*
X4279Y2988D02*
X4398Y2906D01*
G54D22*
D02*
X5983Y161D02*
X5893Y158D01*
D02*
X6051Y357D02*
X5983Y161D01*
D02*
X6051Y957D02*
X6051Y357D01*
D02*
X5884Y1082D02*
X6051Y957D01*
G04 End of Copper1*
M02*