G04 MADE WITH FRITZING*
G04 WWW.FRITZING.ORG*
G04 DOUBLE SIDED*
G04 HOLES PLATED*
G04 CONTOUR ON CENTER OF CONTOUR VECTOR*
%ASAXBY*%
%FSLAX23Y23*%
%MOIN*%
%OFA0B0*%
%SFA1.0B1.0*%
%ADD10C,0.096614*%
%ADD11C,0.214725*%
%ADD12C,0.198977*%
%ADD13C,0.085000*%
%ADD14C,0.084667*%
%ADD15C,0.084695*%
%ADD16C,0.134033*%
%ADD17C,0.072992*%
%ADD18C,0.097244*%
%ADD19C,0.088000*%
%ADD20R,0.072992X0.072992*%
%ADD21R,0.088000X0.088000*%
%LNMASK1*%
G90*
G70*
G54D10*
X4200Y207D03*
X5150Y207D03*
X1700Y207D03*
X2250Y1107D03*
G54D11*
X1721Y2007D03*
G54D12*
X150Y3187D03*
G54D11*
X150Y157D03*
G54D10*
X1350Y1557D03*
X450Y1557D03*
G54D11*
X150Y2007D03*
X2115Y2007D03*
G54D12*
X6150Y3187D03*
G54D11*
X6150Y157D03*
X6150Y2007D03*
G54D13*
X1000Y2707D03*
X1400Y2707D03*
X750Y157D03*
X750Y557D03*
X5250Y857D03*
X5250Y1257D03*
X1050Y2307D03*
X1050Y1907D03*
X950Y2307D03*
X950Y1907D03*
G54D14*
X5150Y2107D03*
X5250Y2107D03*
G54D15*
X5350Y2107D03*
G54D16*
X5056Y2403D03*
X5444Y2403D03*
G54D14*
X2600Y1107D03*
X2700Y1107D03*
G54D15*
X2800Y1107D03*
G54D16*
X2506Y1403D03*
X2894Y1403D03*
G54D14*
X2600Y157D03*
X2700Y157D03*
G54D15*
X2800Y157D03*
G54D16*
X2506Y453D03*
X2894Y453D03*
G54D14*
X3600Y1107D03*
X3700Y1107D03*
G54D15*
X3800Y1107D03*
G54D16*
X3506Y1403D03*
X3894Y1403D03*
G54D14*
X3600Y157D03*
X3700Y157D03*
G54D15*
X3800Y157D03*
G54D16*
X3506Y453D03*
X3894Y453D03*
G54D14*
X4600Y1107D03*
X4700Y1107D03*
G54D15*
X4800Y1107D03*
G54D16*
X4506Y1403D03*
X4894Y1403D03*
G54D14*
X5650Y1107D03*
X5750Y1107D03*
G54D15*
X5850Y1107D03*
G54D16*
X5556Y1403D03*
X5944Y1403D03*
G54D14*
X5650Y157D03*
X5750Y157D03*
G54D15*
X5850Y157D03*
G54D16*
X5556Y453D03*
X5944Y453D03*
G54D14*
X2200Y2757D03*
X2300Y2757D03*
G54D15*
X2400Y2757D03*
G54D16*
X2106Y3053D03*
X2494Y3053D03*
G54D17*
X550Y309D03*
X550Y407D03*
X400Y2756D03*
X400Y2657D03*
X5150Y659D03*
X5150Y757D03*
G54D18*
X4250Y2907D03*
X4250Y2807D03*
X4250Y3007D03*
X4250Y3407D03*
X4250Y3307D03*
X4250Y2507D03*
X3750Y2507D03*
X3750Y2907D03*
X3750Y2807D03*
X3750Y3007D03*
X3750Y3407D03*
X3750Y3307D03*
X3250Y3007D03*
X4600Y407D03*
X4800Y407D03*
X4600Y207D03*
X4800Y207D03*
X1150Y407D03*
X1350Y407D03*
X1350Y207D03*
X1150Y207D03*
X650Y1257D03*
X450Y1057D03*
X450Y1257D03*
X650Y1057D03*
X1350Y1057D03*
X1150Y1057D03*
X1350Y1257D03*
X1150Y1257D03*
X3250Y3407D03*
X3250Y3307D03*
X3250Y2507D03*
X1900Y707D03*
X1900Y607D03*
X2000Y707D03*
X2000Y607D03*
X3250Y2907D03*
X3250Y2807D03*
G54D19*
X5950Y1657D03*
X5850Y1657D03*
X5750Y1657D03*
X5650Y1657D03*
X5550Y1657D03*
X5450Y1657D03*
X5350Y1657D03*
X5250Y1657D03*
X5150Y1657D03*
X5050Y1657D03*
X4950Y1657D03*
X4850Y1657D03*
X4750Y1657D03*
X4650Y1657D03*
X4550Y1657D03*
X4450Y1657D03*
X4350Y1657D03*
X4250Y1657D03*
X4150Y1657D03*
X4050Y1657D03*
X3950Y1657D03*
X3850Y1657D03*
X3750Y1657D03*
X3650Y1657D03*
X3550Y1657D03*
X3450Y1657D03*
X3350Y1657D03*
X3250Y1657D03*
X3150Y1657D03*
X3050Y1657D03*
X2950Y1657D03*
X2850Y1657D03*
X2750Y1657D03*
X2650Y1657D03*
X2550Y1657D03*
X2450Y1657D03*
X2350Y1657D03*
X2250Y1657D03*
X2150Y1657D03*
X2050Y1657D03*
X5850Y1757D03*
X5750Y1757D03*
X1050Y2507D03*
X950Y2507D03*
X850Y2507D03*
X750Y2507D03*
G54D20*
X550Y309D03*
X400Y2756D03*
X5150Y659D03*
G54D21*
X5950Y1657D03*
X5850Y1757D03*
X1050Y2507D03*
G04 End of Mask1*
M02*